<svg width="265" height="225" viewBox="0 0 265 225" fill="none" xmlns="http://www.w3.org/2000/svg">
<path d="M237.038 33.2361C240.445 30.1794 245.858 29.8915 248.914 33.2991L256.794 42.0827C263.022 49.0249 262.442 59.7011 255.5 65.9285L135.975 173.145C117.887 189.371 90.0713 187.861 73.846 169.774L54.5853 148.301C47.8199 140.759 48.6524 129.111 56.4218 122.608L62.0645 117.884C66.4139 114.244 72.8772 114.755 76.6001 119.034V119.034C92.8253 137.122 120.641 138.632 138.729 122.407L237.038 33.2361Z" fill="#1EBBD7"/>
<path d="M195 0C211.569 0 225 13.4315 225 30V38.5918L196.875 64.1025V58.125C196.875 41.5565 183.444 28.125 166.875 28.125H58.125C41.5565 28.125 28.125 41.5565 28.125 58.125V166.875C28.125 183.444 41.5565 196.875 58.125 196.875H166.875C183.444 196.875 196.875 183.444 196.875 166.875V123.4L225 98.1719V195C225 211.569 211.569 225 195 225H30C13.4315 225 8.45643e-07 211.569 0 195V30C0 13.4315 13.4315 8.45592e-07 30 0H195Z" fill="#005073"/>
</svg>
